<svg width="30" height="30" viewBox="0 0 30 30" fill="none" xmlns="http://www.w3.org/2000/svg">
<path d="M9.85844 27.9833C11.1931 27.9833 12.2751 26.9014 12.2751 25.5667C12.2751 24.232 11.1931 23.15 9.85844 23.15C8.52375 23.15 7.44177 24.232 7.44177 25.5667C7.44177 26.9014 8.52375 27.9833 9.85844 27.9833Z" stroke="#3F3F3F" stroke-width="2.8" stroke-linecap="round" stroke-linejoin="round"/>
<path d="M24.3584 27.9833C25.6931 27.9833 26.7751 26.9014 26.7751 25.5667C26.7751 24.232 25.6931 23.15 24.3584 23.15C23.0238 23.15 21.9418 24.232 21.9418 25.5667C21.9418 26.9014 23.0238 27.9833 24.3584 27.9833Z" stroke="#3F3F3F" stroke-width="2.8" stroke-linecap="round" stroke-linejoin="round"/>
<path d="M7.04294 7.44166H27.9834L25.9534 17.5796C25.8429 18.1359 25.5402 18.6356 25.0984 18.9913C24.6566 19.3469 24.1038 19.5359 23.5367 19.525H10.7646C10.1746 19.53 9.60307 19.319 9.15789 18.9317C8.71272 18.5443 8.42463 18.0076 8.34794 17.4225L6.51127 3.50249C6.43511 2.92157 6.1505 2.3881 5.71039 2.00134C5.27029 1.61459 4.70467 1.40088 4.11877 1.39999H1.40002" stroke="#3F3F3F" stroke-width="2.8" stroke-linecap="round" stroke-linejoin="round"/>
</svg>
